<svg width="18" height="19" fill="none" xmlns="http://www.w3.org/2000/svg"><path d="M15.41.6H2.64C1.2.6.1 1.698.1 3.14v12.77c0 1.441 1.099 2.54 2.54 2.54h12.77c1.442 0 2.54-1.099 2.54-2.54V3.14c0-1.442-1.098-2.54-2.54-2.54zM9.025 14.88c2.953 0 5.355-2.334 5.355-5.15 0-.48-.068-1.029-.206-1.44h1.51v7.276a.688.688 0 01-.686.687H3.053a.688.688 0 01-.687-.687V8.22h1.58a5.21 5.21 0 00-.207 1.442c-.069 2.884 2.334 5.218 5.286 5.218zm0-2.06c-1.922 0-3.432-1.51-3.432-3.364 0-1.853 1.51-3.364 3.432-3.364 1.923 0 3.433 1.51 3.433 3.364 0 1.923-1.51 3.364-3.433 3.364zm6.591-7.346a.762.762 0 01-.755.755h-1.922a.762.762 0 01-.755-.755V3.621c0-.412.343-.756.755-.756h1.922c.412 0 .755.344.755.756v1.853z" fill="#fff"/></svg>