<svg width="413" height="112" fill="none" xmlns="http://www.w3.org/2000/svg"><path fill-rule="evenodd" clip-rule="evenodd" d="M31.903 35.088h26.913v4.658H36.56v13.973h13.974v4.658H36.56v22.255h-4.658V35.088zm325.536 0h4.658v45.544h-4.658V35.088z" fill="#fff"/><path fill-rule="evenodd" clip-rule="evenodd" d="M343.465 39.746v-4.658h32.605v4.658h-32.605zm-122.14-4.658h4.658v46.061h-4.658V35.088zm42.438 0h4.658v46.061h-4.658V35.088zm28.983 35.192v-4.657h30.535v4.658h-30.535zM113.082 85.807c16.469 0 29.759-13.24 29.759-29.5 0-16.26-13.29-29.5-29.759-29.5-16.468 0-29.758 13.24-29.758 29.5 0 16.26 13.29 29.5 29.758 29.5zm0 4.658c19.008 0 34.417-15.293 34.417-34.158 0-18.865-15.409-34.158-34.417-34.158-19.007 0-34.416 15.293-34.416 34.158 0 18.865 15.409 34.158 34.416 34.158z" fill="#fff"/><path fill-rule="evenodd" clip-rule="evenodd" d="M132.307 37.158H93.491v38.816h38.816V37.158zM88.833 32.5v48.132h48.132V32.5H88.833z" fill="#fff"/><path fill-rule="evenodd" clip-rule="evenodd" d="M112.899 32.5L89.368 80.502h47.062L112.899 32.5zm0 10.582l-16.06 32.762h32.12l-16.06-32.762zm54.601-7.994h18.631v4.658h-13.973v13.973h13.973v4.658h-13.973v22.255H167.5V35.088z" fill="#fff"/><path fill-rule="evenodd" clip-rule="evenodd" d="M190.013 39.746h-17.855v13.973h17.855a6.987 6.987 0 100-13.973zm-5.175-4.658c-3.057 0-5.84 1.178-7.917 3.105h-5.281v17.079h5.281a11.601 11.601 0 007.917 3.105h5.175c6.431 0 11.645-5.213 11.645-11.645 0-6.43-5.214-11.644-11.645-11.644h-5.175z" fill="#fff"/><path fill-rule="evenodd" clip-rule="evenodd" d="M198.989 80.632h5.261l-13.468-25.666-4.125 2.164 12.332 23.502zM222.1 35.088c0 .382.094.77.292 1.127l19.417 35.1h5.63l19.902-35.078a2.32 2.32 0 00.304-1.15h-5.007L244.64 66.81l-17.548-31.722H222.1zm24.54 37.636l.018-.032a2.313 2.313 0 01-.018.032zm-1.088.982zm0 0zm-1.896-.008zm-.71-.497zm0 0a2.325 2.325 0 01-.37-.5l-.017-.03c.102.192.232.37.387.53zm82.588 7.431L308.22 40.809l-18.179 39.823h-5.121l20.792-45.544h5.1l19.802 45.544h-5.08z" fill="#fff"/><path d="M0 106.105h341.895V112H0v-5.895z" fill="#fff"/><path d="M318.316 106.105h90.386V112h-90.386v-5.895zm88.421-100.21H0V0h406.737v5.895zm-400.842 0V112H0V5.895h5.895z" fill="#fff"/><path d="M406.737 112V1.965h5.895V112h-5.895z" fill="#fff"/></svg>